<?xml version="1.0" encoding="utf-8"?>
<!-- Generator: Adobe Illustrator 15.1.0, SVG Export Plug-In  -->
<!DOCTYPE svg PUBLIC "-//W3C//DTD SVG 1.1//EN" "http://www.w3.org/Graphics/SVG/1.1/DTD/svg11.dtd" [
	<!ENTITY ns_flows "http://ns.adobe.com/Flows/1.0/">
]>
<svg version="1.1"
	 xmlns="http://www.w3.org/2000/svg" xmlns:xlink="http://www.w3.org/1999/xlink" xmlns:a="http://ns.adobe.com/AdobeSVGViewerExtensions/3.0/"
	 x="0px" y="0px" width="296px" height="291px" viewBox="-9.045 -0.635 296 291" enable-background="new -9.045 -0.635 296 291"
	 xml:space="preserve" preserveAspectRatio="xMinYMin">
<defs>
</defs>
<text transform="matrix(0.9992 0.039 -0.039 0.9992 250.5083 150.2783)" fill="#000000" font-family="'Open Sans', sans-serif" font-size="12.458">090°</text>
<polyline fill="#FFFFFF" stroke="#666666" stroke-miterlimit="10" points="144.1,36.425 153.842,36.425 147.223,18.72
	140.605,1.407 133.986,18.915 127.367,36.425 144.1,36.425 "/>
<path opacity="0.5" fill="#FFFFFF" d="M233.922,199.447c8.554-15.193,13.51-33.399,13.729-51.297H145.073L233.922,199.447z"/>
<path opacity="0.5" fill="#FFFFFF" d="M85.509,54.209c-15.44,9.178-28.376,22.113-37.555,37.551l88.854,51.303L85.509,54.209z"/>
<path opacity="0.5" fill="#FFFFFF" d="M139.554,39.205c-19.175,0.217-36.103,5.176-51.298,13.728l51.298,88.851V39.205z"/>
<path opacity="0.5" fill="#FFFFFF" d="M232.649,91.76c-9.181-15.438-22.117-28.373-37.555-37.551l-51.3,88.854L232.649,91.76z"/>
<path opacity="0.5" fill="#FFFFFF" d="M193.409,52.933c-15.193-8.552-33.4-13.511-51.298-13.728v102.578L193.409,52.933z"/>
<path opacity="0.5" fill="#FFFFFF" d="M46.679,94.295c-8.552,15.195-13.51,32.123-13.728,51.299H135.53L46.679,94.295z"/>
<path opacity="0.5" fill="#FFFFFF" d="M32.952,148.15c0.218,17.897,5.176,36.104,13.728,51.297l88.851-51.297H32.952z"/>
<path opacity="0.5" fill="#FFFFFF" d="M233.922,94.295l-88.85,51.299h102.579C247.432,126.418,242.476,109.49,233.922,94.295z"/>
<path opacity="0.5" fill="#FFFFFF" d="M47.955,201.348c9.179,15.438,22.114,28.373,37.555,37.555l51.3-88.854L47.955,201.348z"/>
<path opacity="0.5" fill="#FFFFFF" d="M195.094,238.902c15.438-9.182,28.374-22.117,37.555-37.555l-88.854-51.299L195.094,238.902z"
	/>
<path opacity="0.5" fill="#FFFFFF" d="M142.111,253.905c17.897-0.22,36.104-5.179,51.298-13.729l-51.298-88.85V253.905z"/>
<path opacity="0.5" fill="#FFFFFF" d="M139.554,253.905V151.326l-51.298,88.85C103.452,248.727,120.379,253.686,139.554,253.905z"/>
<rect x="150.102" y="57.815" fill="none" width="17.258" height="20.666"/>
<text transform="matrix(1 0 0 1 151.4512 75.3037)" fill="#999999" font-family="'Open Sans', sans-serif" font-size="23.0105">A</text>
<rect x="212.421" y="116.62" fill="none" width="18.217" height="21.306"/>
<text transform="matrix(1 0 0 1 214.272 134.1084)" fill="#999999" font-family="'Open Sans', sans-serif" font-size="23.0105">C</text>
<rect x="212.102" y="159.445" fill="none" width="18.216" height="21.306"/>
<text transform="matrix(1 0 0 1 212.8232 176.9346)" fill="#999999" font-family="'Open Sans', sans-serif" font-size="23.0105">D</text>
<rect x="189.73" y="197.157" fill="none" width="18.217" height="21.306"/>
<text transform="matrix(1 0 0 1 192.4409 214.6455)" fill="#999999" font-family="'Open Sans', sans-serif" font-size="23.0105">E</text>
<rect x="154.256" y="220.168" fill="none" width="18.217" height="21.305"/>
<text transform="matrix(1 0 0 1 157.4272 237.6553)" fill="#999999" font-family="'Open Sans', sans-serif" font-size="23.0105">F</text>
<rect x="108.874" y="218.889" fill="none" width="18.216" height="21.306"/>
<text transform="matrix(1 0 0 1 109.6074 236.3779)" fill="#999999" font-family="'Open Sans', sans-serif" font-size="23.0105">G</text>
<rect x="69.883" y="197.157" fill="none" width="18.217" height="21.306"/>
<text transform="matrix(1 0 0 1 70.5044 214.6455)" fill="#999999" font-family="'Open Sans', sans-serif" font-size="23.0105">H</text>
<rect x="45.915" y="157.848" fill="none" width="18.217" height="21.305"/>
<text transform="matrix(1 0 0 1 51.8169 175.335)" fill="#999999" font-family="'Open Sans', sans-serif" font-size="23.0105">I</text>
<rect x="47.832" y="114.063" fill="none" width="18.217" height="21.306"/>
<text transform="matrix(1 0 0 1 53.8682 131.5518)" fill="#999999" font-family="'Open Sans', sans-serif" font-size="23.0105">J</text>
<rect x="73.08" y="79.548" fill="none" width="18.216" height="21.306"/>
<text transform="matrix(1 0 0 1 75.127 97.0361)" fill="#999999" font-family="'Open Sans', sans-serif" font-size="23.0105">K</text>
<rect x="109.833" y="57.815" fill="none" width="18.216" height="21.306"/>
<text transform="matrix(1 0 0 1 112.9697 75.3037)" fill="#999999" font-family="'Open Sans', sans-serif" font-size="23.0105">L</text>
<rect x="131.529" y="20.82" fill="none" width="18.217" height="21.306"/>
<text transform="matrix(1 0 0 1 133.8921 34.4229)" font-family="'Open Sans', sans-serif" font-size="17.8971">N</text>
<rect x="188.216" y="77.798" fill="none" width="18.217" height="21.304"/>
<text transform="matrix(1 0 0 1 189.8687 95.2861)" fill="#999999" font-family="'Open Sans', sans-serif" font-size="23.0105">B</text>
<rect x="11.455" y="57.764" fill="none" width="25.161" height="36.504"/>
<text transform="matrix(0.612 -0.7909 0.7909 0.612 197.0327 51.6631)" fill="#000000" font-family="'Open Sans', sans-serif" font-size="12.4579">030°</text>
<text transform="matrix(0.7956 -0.6058 0.6058 0.7956 238.877 93.8594)" fill="#000000" font-family="'Open Sans', sans-serif" font-size="12.458">060°</text>
<text transform="matrix(0.8432 0.5376 -0.5376 0.8432 231.9468 208.4766)" fill="#000000" font-family="'Open Sans', sans-serif" font-size="12.458">120°</text>
<text transform="matrix(0.5204 0.8539 -0.8539 0.5204 191.499 246.6582)" fill="#000000" font-family="'Open Sans', sans-serif" font-size="12.458">150°</text>
<text transform="matrix(-8.000000e-005 1 -1 -8.000000e-005 135.189 261.583)" fill="#000000" font-family="'Open Sans', sans-serif" font-size="12.458">180°</text>
<text transform="matrix(0.5548 -0.832 0.832 0.5548 69.626 272.8574)" fill="#000000" font-family="'Open Sans', sans-serif" font-size="12.458">210°</text>
<text transform="matrix(0.7855 -0.6189 0.6189 0.7855 22.1777 224.4121)" fill="#000000" font-family="'Open Sans', sans-serif" font-size="12.458">240°</text>
<text transform="matrix(1 0.005 -0.005 1 0.0166 152.0283)" fill="#000000" font-family="'Open Sans', sans-serif" font-size="12.458">270°</text>
<text transform="matrix(0.8352 0.55 -0.55 0.8352 16.8896 80.7217)" fill="#000000" font-family="'Open Sans', sans-serif" font-size="12.458">300°</text>
<text transform="matrix(0.4824 0.876 -0.876 0.4824 65.7642 29.7109)" fill="#000000" font-family="'Open Sans', sans-serif" font-size="12.458">330°</text>
</svg>
