<svg xmlns="http://www.w3.org/2000/svg" xmlns:xlink="http://www.w3.org/1999/xlink" width="263" height="271" viewBox="0 0 263 271">
  <defs>
    <path id="path-13" fill-rule="evenodd" d="M135.31 7.83l-14.82 25.66h29.63L135.31 7.83z"/>
    <ellipse id="ellipse-14" cx="134" cy="142" rx="8" ry="8"/>
    <mask id="mask-15" x="0" y="0" maskContentUnits="userSpaceOnUse" maskUnits="userSpaceOnUse">
      <rect width="263" height="271" x="0" y="0" fill="black"/>
      <use fill="white" xlink:href="#ellipse-14"/>
    </mask>
  </defs>
  <g>
    <text font-size="0" style="white-space:pre" opacity=".5">
      <tspan x="32.53" y="125.88" fill="rgb(255,255,255)" font-family="FS Emeric" font-size="12" font-weight="800" style="white-space:pre;text-transform:none">J</tspan>
    </text>
    <g opacity=".1">
      <path fill="rgb(255,255,255)" fill-rule="evenodd" d="M39.88 91c-8.89305238 15.64256247-13.62066583 33.30655155-13.73 51.3h102.58L39.88 91z"/>
    </g>
  </g>
  <g opacity=".5">
    <path fill="rgb(204,0,51)" fill-rule="evenodd" d="M227.12 91l-88.85 51.3h102.58c-.11379738-17.99284743-4.84111436-35.65572882-13.73-51.3z"/>
  </g>
  <g opacity=".1">
    <path fill="rgb(255,255,255)" fill-rule="evenodd" d="M135.31 250.56c17.96945537-.28436482 35.59079482-5.00056346 51.3-13.73L135.31 148v102.56z"/>
  </g>
  <g opacity=".5">
    <path fill="rgb(204,0,51)" fill-rule="evenodd" d="M188.29 235.55c15.45043672-9.19508635 28.3607999-22.10201226 37.56-37.55L137 146.7l51.29 88.85z"/>
  </g>
  <text font-size="0" style="white-space:pre" opacity=".5">
    <tspan x="154.22" y="244.84" fill="rgb(255,255,255)" font-family="FS Emeric" font-size="12" font-weight="800" style="white-space:pre;text-transform:none">F</tspan>
  </text>
  <g>
    <text font-size="0" style="white-space:pre" opacity=".5">
      <tspan x="59.06" y="79.51" fill="rgb(255,255,255)" font-family="FS Emeric" font-size="12" font-weight="800" style="white-space:pre;text-transform:none">K</tspan>
    </text>
    <g opacity=".1">
      <path fill="rgb(255,255,255)" fill-rule="evenodd" d="M78.71 50.86c-15.45383742 9.19071338-28.36517195 22.0986104-37.56 37.55L130 139.72 78.71 50.86z"/>
    </g>
  </g>
  <g>
    <text font-size="0" style="white-space:pre" opacity=".5">
      <tspan x="199.89" y="78.63" fill="rgb(255,255,255)" font-family="FS Emeric" font-size="12" font-weight="800" style="white-space:pre;text-transform:none">B</tspan>
    </text>
    <g opacity=".1">
      <path fill="rgb(255,255,255)" fill-rule="evenodd" d="M225.85 88.41c-9.1992001-15.44798774-22.10956328-28.35491365-37.56-37.55L137 139.72l88.85-51.31z"/>
    </g>
  </g>
  <g>
    <text font-size="0" style="white-space:pre" opacity=".5">
      <tspan x="155.55" y="52.47" fill="rgb(255,255,255)" font-family="FS Emeric" font-size="12" font-weight="800" style="white-space:pre;text-transform:none">A</tspan>
    </text>
    <g opacity=".1">
      <path fill="rgb(255,255,255)" fill-rule="evenodd" d="M186.61 49.59c-15.70498168-8.73987385-33.32899004-13.45678681-51.3-13.73v102.58l51.3-88.85z"/>
    </g>
  </g>
  <text font-size="0" style="white-space:pre" opacity=".5">
    <tspan x="34.67" y="171.96" fill="rgb(255,255,255)" font-family="FS Emeric" font-size="12" font-weight="800" style="white-space:pre;text-transform:none">I</tspan>
  </text>
  <g opacity=".1">
    <path fill="rgb(255,255,255)" fill-rule="evenodd" d="M26.15 144.8c.27735027 17.97043365 4.99399803 35.5934511 13.73 51.3l88.85-51.3H26.15z"/>
  </g>
  <text font-size="0" style="white-space:pre" opacity=".5">
    <tspan x="59.06" y="216.52" fill="rgb(255,255,255)" font-family="FS Emeric" font-size="12" font-weight="800" style="white-space:pre;text-transform:none">H</tspan>
  </text>
  <g opacity=".1">
    <path fill="rgb(255,255,255)" fill-rule="evenodd" d="M41.15 198c9.1978847 15.4516449 22.1083551 28.3621153 37.56 37.56L130 146.7 41.15 198z"/>
  </g>
  <text font-size="0" style="white-space:pre" opacity=".5">
    <tspan x="103.25" y="243.73" fill="rgb(255,255,255)" font-family="FS Emeric" font-size="12" font-weight="800" style="white-space:pre;text-transform:none">G</tspan>
  </text>
  <g opacity=".1">
    <path fill="rgb(255,255,255)" fill-rule="evenodd" d="M132.75 250.56V148l-51.3 88.85c15.64717841 8.87940662 33.3092837 13.59963008 51.3 13.71z"/>
  </g>
  <g>
    <g opacity=".1">
      <path fill="rgb(255,255,255)" fill-rule="evenodd" d="M132.75 35.86c-17.99398994.10530953-35.65897876 4.83319055-51.3 13.73l51.3 88.85V35.86z"/>
    </g>
    <text font-size="0" style="white-space:pre" opacity=".5">
      <tspan x="103.25" y="53.58" fill="rgb(255,255,255)" font-family="FS Emeric" font-size="12" font-weight="800" style="white-space:pre;text-transform:none">L</tspan>
    </text>
  </g>
  <g opacity=".5">
    <path fill="rgb(204,0,51)" fill-rule="evenodd" d="M227.12 196.1c8.7321374-15.70811263 13.4485207-33.33014203 13.73-51.3H138.27l88.85 51.3z"/>
  </g>
  <text font-size="0" style="white-space:pre">
    <tspan x="225.61" y="173.96" fill="rgb(255,255,255)" font-family="FS Emeric" font-size="12" font-weight="800" style="white-space:pre;text-transform:none">D</tspan>
  </text>
  <text font-size="0" style="white-space:pre">
    <tspan x="198" y="216" fill="rgb(255,255,255)" font-family="FS Emeric" font-size="12" font-weight="800" style="white-space:pre;text-transform:none">E</tspan>
  </text>
  <g>
    <g opacity=".5">
      <use fill="rgb(255,255,255)" xlink:href="#path-13"/>
      <use fill-opacity="0" stroke="rgb(42,42,42)" stroke-dasharray="0 0 0 0" stroke-linecap="butt" stroke-linejoin="miter" stroke-width="1" xlink:href="#path-13"/>
    </g>
    <text font-size="0" style="white-space:pre">
      <tspan x="7.518" y="146.973" fill="rgb(0,0,0)" font-family="FS Emeric" font-size="16" font-weight="600" style="white-space:pre;text-transform:none">W</tspan>
    </text>
    <text font-size="0" style="white-space:pre">
      <tspan x="130.028" y="265.345" fill="rgb(0,0,0)" font-family="FS Emeric" font-size="16" font-weight="600" style="white-space:pre;text-transform:none">S</tspan>
    </text>
    <text font-size="0" style="white-space:pre">
      <tspan x="130.018" y="30.24" fill="rgb(0,0,0)" font-family="FS Emeric" font-size="16" font-weight="600" style="white-space:pre;text-transform:none">N</tspan>
    </text>
    <text font-size="0" style="white-space:pre" transform="rotate(2 248.85297832 143.61810153)">
      <tspan x="243.853" y="147.118" fill="rgb(0,0,0)" font-family="FS Emeric" font-size="16" font-weight="600" style="white-space:pre;text-transform:none">E</tspan>
    </text>
  </g>
  <g>
    <use fill="rgb(51,153,255)" xlink:href="#ellipse-14"/>
    <use fill-opacity="0" stroke="rgb(255,255,255)" stroke-linecap="butt" stroke-linejoin="miter" stroke-width="4" mask="url(#mask-15)" xlink:href="#ellipse-14"/>
  </g>
  <text font-size="0" style="white-space:pre">
    <tspan x="225.61" y="122.52" fill="rgb(255,255,255)" font-family="FS Emeric" font-size="12" font-weight="800" style="white-space:pre;text-transform:none">C</tspan>
  </text>
</svg>
