<?xml version="1.0" encoding="UTF-8" standalone="no"?>
<svg width="40px" height="40px" viewBox="0 0 40 40" version="1.1" xmlns="http://www.w3.org/2000/svg" xmlns:xlink="http://www.w3.org/1999/xlink">
    <!-- Generator: Sketch 45 (43475) - http://www.bohemiancoding.com/sketch -->
    <title>no_data</title>
    <desc>Created with Sketch.</desc>
    <defs>
        <polygon id="path-1" points="0 0.1729 29.9296 0.1729 29.9296 20 0 20"></polygon>
        <polygon id="path-3" points="0 0.1729 29.9296 0.1729 29.9296 20 0 20"></polygon>
        <polygon id="path-5" points="0 0.1729 29.9296 0.1729 29.9296 20 0 20"></polygon>
    </defs>
    <g id="Weather-Icons" stroke="none" stroke-width="1" fill="none" fill-rule="evenodd">
        <g id="no_data">
            <g id="Icon-/-Weather-symbol-/-Weather-icon-/-No-data">
                <g id="Icon-/-Weather-icon-/-No-data">
                    <g id="Page-1" transform="translate(5.000000, 5.000000)">
                        <path d="M12.2584237,0.2924 L13.8477,0.2924 L13.8477,8.2138 L12.616993,8.2138 C12.5373506,8.2138 12.4773509,8.20594289 12.4377083,8.18987151 C12.3980657,8.17415729 12.3544945,8.13451457 12.3066377,8.07058623 L9.23558435,4.21131444 C9.13201353,4.08417204 9.02665701,3.95060109 8.91915765,3.81131588 C8.81165828,3.67167353 8.70987317,3.53845972 8.61451659,3.41060304 C8.51880287,3.28346064 8.43308909,3.16596106 8.35773239,3.05846145 C8.28166141,2.95096184 8.2202332,2.86524786 8.17273348,2.80131952 L8.17273348,8.2138 L6.5831,8.2138 L6.5831,0.2924 L7.82594981,0.2924 C7.9055922,0.2924 7.963449,0.300257115 7.99916307,0.316328485 C8.03523429,0.332399856 8.07701976,0.37204257 8.12487662,0.435970911 L10.9562885,3.9841724 C11.0837877,4.15167179 11.2148584,4.31881405 11.3505719,4.48631344 C11.4859282,4.6534557 11.6112846,4.81274084 11.7269982,4.96416886 C11.8423547,5.11523975 11.9459255,5.2548821 12.0377107,5.3820245 C12.1291387,5.50952404 12.2027097,5.61345224 12.2584237,5.69309481 L12.2584237,0.2924 Z" id="Fill-1" fill="#575756"></path>
                        <path d="M16.8105,4.2592 C16.8105,5.04776687 17.0115733,5.65704907 17.41372,6.08740373 C17.8158666,6.51740124 18.3676576,6.7324 19.0687356,6.7324 L19.0926644,6.7324 C19.7937424,6.7324 20.3448191,6.51954409 20.7473229,6.09311798 C21.1494695,5.66704901 21.3509,5.05562397 21.3509,4.2592 C21.3509,3.46277603 21.1494695,2.85135099 20.7473229,2.42528202 C20.3448191,1.99921305 19.7937424,1.786 19.0926644,1.786 L19.0687356,1.786 C18.3676576,1.786 17.8158666,1.99921305 17.41372,2.42528202 C17.0115733,2.85135099 16.8105,3.46277603 16.8105,4.2592 L16.8105,4.2592 Z M19.0686857,8.3335 C18.5429695,8.3335 18.041182,8.23778521 17.562966,8.04671278 C17.0854643,7.85564035 16.6629628,7.58492464 16.29689,7.23420851 C15.930103,6.88384953 15.637602,6.45563299 15.4186726,5.94991605 C15.1993861,5.44419911 15.0901,4.88062472 15.0901,4.25919289 C15.0901,3.62990387 15.1993861,3.06454376 15.4186726,2.56275541 C15.637602,2.06060991 15.930103,1.63275052 16.29689,1.2781058 C16.6629628,0.923818228 17.0854643,0.650959653 17.562966,0.45988722 C18.041182,0.268457644 18.5429695,0.1731 19.0686857,0.1731 L19.0926143,0.1731 C19.6183305,0.1731 20.120118,0.268457644 20.5979769,0.45988722 C21.0758357,0.650959653 21.4979801,0.923818228 21.86441,1.2781058 C22.2308398,1.63275052 22.5233409,2.06060991 22.7426274,2.56275541 C22.9619139,3.06454376 23.0712,3.62990387 23.0712,4.25919289 C23.0712,4.88062472 22.9619139,5.44419911 22.7426274,5.94991605 C22.5233409,6.45563299 22.2308398,6.88384953 21.86441,7.23420851 C21.4979801,7.58492464 21.0758357,7.85564035 20.5979769,8.04671278 C20.120118,8.23778521 19.6183305,8.3335 19.0926143,8.3335 L19.0686857,8.3335 Z" id="Fill-3" fill="#575756"></path>
                        <g id="Group-7">
                            <mask id="mask-2" fill="white">
                                <use xlink:href="#path-1"></use>
                            </mask>
                            <g id="Clip-6"></g>
                            <path d="M2.59262519,18.5662 C3.17405168,18.5662 3.66369279,18.5165574 4.06226279,18.4169151 C4.46047565,18.31763 4.78297449,18.1479881 5.03011647,17.9090609 C5.43618644,17.5187059 5.6394,16.8933523 5.6394,16.0333572 C5.6394,15.5951454 5.58975732,15.2247903 5.49011482,14.9219349 C5.39047232,14.6194366 5.23690144,14.3687237 5.03011647,14.1694391 C4.78297449,13.9305119 4.46047565,13.7612272 4.06226279,13.6615849 C3.66369279,13.5619426 3.17405168,13.5123 2.59262519,13.5123 L1.6487,13.5123 L1.6487,18.5662 L2.59262519,18.5662 Z M0.0001,20.0002 L0.0001,12.0784 L2.64045714,12.0784 C3.42902857,12.0784 4.11402857,12.1562573 4.69545714,12.3112576 C5.27688571,12.466615 5.77081429,12.7198297 6.17688571,13.0701875 C6.55938571,13.3966167 6.8501,13.8048317 7.04938571,14.2948326 C7.24831429,14.7848335 7.3476,15.3680488 7.3476,16.0451929 C7.3476,16.7141226 7.24831429,17.2937665 7.04938571,17.7837674 C6.8501,18.2737683 6.55938571,18.6819833 6.17688571,19.0084125 C5.77081429,19.3591274 5.27688571,19.611985 4.69545714,19.7669853 C4.11402857,19.9223427 3.42902857,20.0002 2.64045714,20.0002 L0.0001,20.0002 Z" id="Fill-5" fill="#575756" mask="url(#mask-2)"></path>
                        </g>
                        <g id="Group-10">
                            <mask id="mask-4" fill="white">
                                <use xlink:href="#path-3"></use>
                            </mask>
                            <g id="Clip-9"></g>
                            <path d="M10.6814,17.0845 L13.155,17.0845 L12.6053508,15.6630655 C12.4617777,15.2966354 12.3224904,14.9323481 12.1871317,14.5694895 C12.0514158,14.206988 11.9482003,13.9066296 11.8764138,13.6677 C11.8364133,13.7869862 11.7889128,13.9344868 11.7328407,14.1094876 C11.6771258,14.2848454 11.6153394,14.4723462 11.5478386,14.6709185 C11.4799807,14.8705622 11.4060512,15.0773488 11.3267646,15.2923496 C11.2471208,15.5073505 11.1714057,15.71878 11.0996191,15.9255666 L10.6814,17.0845 Z M13.6802857,18.4109114 L10.1917143,18.4109114 L9.666,19.8566283 C9.64207143,19.920557 9.61814286,19.9601999 9.59421429,19.9759142 C9.57064286,19.9923428 9.52278571,20.0002 9.451,20.0002 L7.9335,20.0002 L10.9802857,12.0784 L12.6052857,12.0784 C12.6767143,12.0784 12.7267143,12.0884 12.7545714,12.1084001 C12.7824286,12.1284001 12.8120714,12.1701859 12.8442143,12.2337574 L16.046,20.0002 L14.481,20.0002 C14.4092143,20.0002 14.3595714,19.9923428 14.3317143,19.9759142 C14.3038571,19.9601999 14.2777857,19.920557 14.2538571,19.8566283 L13.6802857,18.4109114 Z" id="Fill-8" fill="#575756" mask="url(#mask-4)"></path>
                        </g>
                        <polygon id="Fill-11" fill="#575756" points="19.7499429 20 18.1010143 20 18.1010143 13.4642739 15.4603 13.4642739 15.4603 12.0782 22.3903 12.0782 22.3903 13.4642739 19.7499429 13.4642739"></polygon>
                        <g id="Group-15">
                            <mask id="mask-6" fill="white">
                                <use xlink:href="#path-5"></use>
                            </mask>
                            <g id="Clip-14"></g>
                            <path d="M24.5648,17.0845 L27.0384,17.0845 L26.4887508,15.6630655 C26.3451777,15.2966354 26.2058904,14.9323481 26.0705317,14.5694895 C25.9348158,14.206988 25.8316003,13.9066296 25.7598138,13.6677 C25.7198133,13.7869862 25.6723128,13.9344868 25.6162407,14.1094876 C25.5605258,14.2848454 25.4987394,14.4723462 25.4312386,14.6709185 C25.3633807,14.8705622 25.2894512,15.0773488 25.2101646,15.2923496 C25.1305208,15.5073505 25.0548057,15.71878 24.9830191,15.9255666 L24.5648,17.0845 Z M27.5636857,18.4109114 L24.0751143,18.4109114 L23.5494,19.8566283 C23.5254714,19.920557 23.5015429,19.9601999 23.4776143,19.9759142 C23.4540429,19.9923428 23.4061857,20.0002 23.3344,20.0002 L21.8169,20.0002 L24.8636857,12.0784 L26.4886857,12.0784 C26.5601143,12.0784 26.6101143,12.0884 26.6379714,12.1084001 C26.6658286,12.1284001 26.6954714,12.1701859 26.7276143,12.2337574 L29.9294,20.0002 L28.3644,20.0002 C28.2926143,20.0002 28.2429714,19.9923428 28.2151143,19.9759142 C28.1872571,19.9601999 28.1611857,19.920557 28.1372571,19.8566283 L27.5636857,18.4109114 Z" id="Fill-13" fill="#575756" mask="url(#mask-6)"></path>
                        </g>
                    </g>
                </g>
            </g>
        </g>
    </g>
</svg>