<svg xmlns="http://www.w3.org/2000/svg" xmlns:xlink="http://www.w3.org/1999/xlink" version="1.1" x="0px" y="0px" viewBox="0 0 219.349 238" style="enable-background:new 0 0 219.349 237.183;" xml:space="preserve"><g><path d="M158.786,82.945v46.25h-42.928c-0.049,1.603-0.111,3.23-0.186,4.875h16.426v17.499h-25.883   c-0.206,0.076-0.412,0.153-0.623,0.219l-9.947,9.949c-0.803-0.447-1.676-0.781-2.598-0.987v4.039   c2.187,0.855,3.738,2.979,3.738,5.468c0,2.49-1.552,4.613-3.738,5.468v4.04c4.355-0.975,7.613-4.858,7.613-9.508   c0-1.85-0.524-3.573-1.42-5.046l8.643-8.642h29.215V134.07h11.125v24.486l-17.486,17.486c-1.507-0.953-3.287-1.513-5.201-1.513   c-5.385,0-9.75,4.365-9.75,9.75c0,5.385,4.365,9.75,9.75,9.75c5.385,0,9.75-4.365,9.75-9.75c0-1.653-0.414-3.209-1.141-4.573   l19.077-19.079V134.07h10.438v-10.356h9.5v26.286l10.168,10.168c-0.781,1.402-1.23,3.016-1.23,4.735c0,5.385,4.365,9.75,9.75,9.75   c5.385,0,9.75-4.365,9.75-9.75c0-5.385-4.365-9.75-9.75-9.75c-1.85,0-3.572,0.524-5.045,1.418l-8.643-8.643v-29.214h-14.5v-9.583   h20.215l17.487,17.486c-0.954,1.506-1.514,3.287-1.514,5.202c0,5.385,4.365,9.75,9.75,9.75c5.385,0,9.75-4.365,9.75-9.75   c0-5.385-4.365-9.75-9.75-9.75c-1.653,0-3.209,0.415-4.573,1.141l-19.08-19.08h-22.285V93.488h29.784l11.107-11.107   c1.474,0.895,3.196,1.419,5.046,1.419c5.385,0,9.75-4.365,9.75-9.75c0-5.385-4.365-9.75-9.75-9.75c-5.385,0-9.75,4.365-9.75,9.75   c0,1.719,0.448,3.331,1.23,4.734l-9.704,9.703h-27.713V78.07h-10.167V64.757h18.265l10.168-10.167   c1.402,0.781,3.016,1.23,4.735,1.23c5.385,0,9.75-4.365,9.75-9.75c0-5.385-4.365-9.75-9.75-9.75c-5.385,0-9.75,4.365-9.75,9.75   c0,1.849,0.524,3.572,1.418,5.045l-8.642,8.641l-21.195,0.002V78.07h-10.332V46.041l17.486-17.484   c1.506,0.954,3.287,1.514,5.201,1.514c5.385,0,9.75-4.365,9.75-9.75c0-5.385-4.365-9.75-9.75-9.75c-5.385,0-9.75,4.365-9.75,9.75   c0,1.654,0.415,3.209,1.141,4.574l-19.078,19.077V78.07h-10.334V56.471l-15.662-15.662c0.699-1.344,1.101-2.869,1.101-4.489   c0-5.385-4.365-9.75-9.75-9.75c-5.385,0-9.75,4.365-9.75,9.75c0,5.385,4.365,9.75,9.75,9.75c1.947,0,3.757-0.577,5.279-1.56   l14.033,14.033V78.07h-6.306c0.425,1.573,0.82,3.195,1.184,4.875H158.786z M131.411,184.279c0,3.246-2.631,5.875-5.875,5.875   c-3.244,0-5.875-2.629-5.875-5.875c0-3.244,2.631-5.875,5.875-5.875C128.78,178.404,131.411,181.035,131.411,184.279z    M191.848,159.029c3.244,0,5.875,2.63,5.875,5.875c0,3.244-2.631,5.875-5.875,5.875c-3.244,0-5.875-2.631-5.875-5.875   C185.973,161.659,188.604,159.029,191.848,159.029z M209.599,125.945c3.245,0,5.875,2.631,5.875,5.875   c0,3.245-2.63,5.875-5.875,5.875c-3.244,0-5.875-2.63-5.875-5.875C203.724,128.576,206.355,125.945,209.599,125.945z    M203.723,74.05c0-3.245,2.631-5.875,5.875-5.875c3.245,0,5.875,2.63,5.875,5.875s-2.63,5.875-5.875,5.875   C206.354,79.925,203.723,77.295,203.723,74.05z M180.787,46.07c0-3.244,2.63-5.875,5.875-5.875c3.245,0,5.875,2.631,5.875,5.875   c0,3.244-2.63,5.875-5.875,5.875C183.417,51.945,180.787,49.314,180.787,46.07z M154.973,20.32c0-3.244,2.631-5.875,5.875-5.875   c3.245,0,5.875,2.631,5.875,5.875c0,3.244-2.63,5.875-5.875,5.875C157.604,26.195,154.973,23.564,154.973,20.32z M98.515,42.195   c-3.245,0-5.875-2.631-5.875-5.875c0-3.244,2.63-5.875,5.875-5.875c3.245,0,5.875,2.631,5.875,5.875   C104.39,39.564,101.76,42.195,98.515,42.195z M153.496,80.154h-0.002H153.496z M122.829,79.654h-0.002H122.829z"/><rect x="118.036" y="88.445" width="35.25" height="35.25"/><path d="M30.954,147.105v-20.678l2,0.842v97.548c0,6.831,5.537,12.364,12.365,12.364c5.281,0,9.778-3.318,11.549-7.981   c0.518-1.364,0.814-2.837,0.814-4.383v-90.27h4.636v90.27c0,6.831,5.537,12.364,12.365,12.364c6.826,0,12.363-5.533,12.363-12.364   V74.816c3.467,7.1,6.998,20.703,6.965,44.92c0,5.514-0.178,11.57-0.568,18.223c-0.26,4.409,3.105,8.195,7.518,8.453   c0.16,0.01,0.318,0.015,0.475,0.015c4.205-0.001,7.73-3.28,7.98-7.532c0.406-6.934,0.594-13.302,0.594-19.158   c-0.012-22.658-2.77-37.666-6.877-48.045c-4.057-10.34-9.855-16.175-15.234-18.842c-3.416-1.722-6.414-2.111-8.221-2.133   c-0.119-0.006-0.238-0.018-0.359-0.018H52.76c0.005,0.219,0.008,0.476,0.009,0.807c-0.016,3.917-0.447,15.504-5.408,28.773   l-5.539-2.332c4.512-12.225,4.96-22.988,4.947-26.441c0-0.36-0.004-0.62-0.009-0.807h-6.077c-0.479,0-0.945,0.05-1.398,0.133v0.008   c-3.087,0.349-5.766,1.558-8.109,3.105c-2.766,1.85-5.152,4.262-7.215,7.111c-4.088,5.687-6.924,13.245-6.939,21.841   c-0.01,6.437,1.672,13.409,5.572,20.1c3.891,6.7,9.926,13.073,18.375,18.722c1.365,0.914,2.912,1.352,4.441,1.352   c2.58,0,5.113-1.246,6.656-3.552c2.457-3.671,1.473-8.64-2.201-11.099c-6.777-4.54-10.94-9.168-13.439-13.465   c-2.49-4.307-3.395-8.325-3.404-12.058c-0.004-3.485,0.836-6.737,2.119-9.429c1.264-2.687,3.018-4.777,4.393-5.837   c0.426-0.341,0.79-0.557,1.067-0.698l0.185,2.259c-1.045,0.806-2.648,2.608-3.834,5.128c-1.268,2.658-1.933,5.619-1.931,8.576   c0.007,1.966,0.288,3.881,0.844,5.773l3.568-8.475l30.989,13.049l-16.65,39.538l-30.986-13.05l3.459-8.217   c-2.065-2.406-3.869-4.911-5.382-7.513c-3.832-6.577-5.851-13.876-5.839-21.106c0.012-8.291,2.611-16.462,7.312-23.006   c2.271-3.139,4.871-5.695,7.729-7.605c2.847-1.881,6.135-3.07,9.056-3.463l0.001,0.016c0.51-0.083,1.029-0.137,1.563-0.137h14.626   c-5.287-1.128-14.396-2.855-20.274-2.771c-1.517,0.021-2.823,0.16-3.787,0.465c-6.332,2-24,14-30.5,49.5   C-4.14,122.585,15.989,143.48,30.954,147.105z"/><circle cx="60.001" cy="22.5" r="22.5"/><rect x="50.686" y="82.662" transform="matrix(0.3881 -0.9216 0.9216 0.3881 -54.9369 105.3181)" width="2.325" height="22.743"/><rect x="48.881" y="86.947" transform="matrix(0.3874 -0.9219 0.9219 0.3874 -59.9857 106.3616)" width="2.325" height="22.745"/></g></svg>
