<svg xmlns="http://www.w3.org/2000/svg" xmlns:xlink="http://www.w3.org/1999/xlink" version="1.1" x="0px" y="0px" viewBox="0 0 169.473 166" style="enable-background:new 0 0 169.473 165.178;" xml:space="preserve"><g><path d="M32.131,52.876c1.322-2.601,2.318-5.14,3.069-7.4l1.61,6.335c0.073,1.57,0.119,3.192,0.119,4.838   c0.004,5.981-0.584,12.223-2.348,16.829c-1.815,4.635-4.504,7.448-9.035,7.472c-0.179,0-0.367-0.004-0.563-0.011   c-0.567-0.029-1.144-0.046-1.712-0.044C9.782,80.911,1.264,89.156,1.259,98.245c0.002,6.858,4.868,13.786,15.273,17.602v9.332   c-1.723,0.303-3.354,0.464-4.875,0.464c-4.819-0.011-8.646-1.416-11.657-3.781v2.458c3.15,2.087,7.018,3.324,11.601,3.324   c0.02,0,0.037,0,0.056,0c1.543-0.001,3.173-0.15,4.875-0.432v9.273c1.923-0.754,4.009-1.183,6.198-1.183   c9.389,0,17,7.611,17,17.001c0,0.102-0.014,0.199-0.016,0.301h27.531c-0.002-0.102-0.016-0.199-0.016-0.301   c0-9.39,7.611-17.001,17-17.001c1.853,0,3.631,0.307,5.301,0.854v-10.833c3.293-0.229,5.834-1.53,7.49-3.595   c1.844-2.286,2.609-5.358,2.611-8.713C99.6,104.211,94.431,93.109,86.9,87.15c-4.699-3.696-10.156-4.938-15.309-4.937   c-5.254,0.008-10.235,1.272-14.007,2.589l-10.997-43.23c1.564-1.778,2.539-4.08,2.633-6.613L72.295,20.38   c1.291,0.558,2.714,0.871,4.21,0.871c2.116,0,4.083-0.626,5.739-1.691l23.293,9.83c0.981,4.853,5.269,8.506,10.412,8.506   c0.541,0,1.069-0.053,1.589-0.131l6.745,7.224l-10.73,10.73l3.889,3.888l30.053-30.052l-3.89-3.889l-10.832,10.833l-6.458-6.917   c0.166-0.745,0.26-1.516,0.26-2.311c0-5.867-4.757-10.625-10.625-10.625c-2.115,0-4.081,0.626-5.736,1.691L86.918,8.507   C85.936,3.654,81.646,0,76.505,0C70.771,0,66.112,4.545,65.9,10.226L42.821,24.807c-1.29-0.557-2.712-0.869-4.206-0.869   c-5.867,0-10.625,4.758-10.625,10.625c0,4.055,2.271,7.575,5.609,9.366c-1.724,5.502-5.021,13.029-11.016,18.575   c-0.043,0.911-0.093,1.834-0.142,2.756C26.799,61.711,29.934,57.207,32.131,52.876z M26.115,118.854h-4.25v-7.5h4.25V118.854z    M34.24,118.854h-4.25v-7.5h4.25V118.854z M42.365,118.854h-4.25v-7.5h4.25V118.854z M71.592,84.215   c4.848,0.002,9.801,1.152,14.072,4.509c6.963,5.431,12,16.257,11.969,24.293c0.002,3.062-0.715,5.667-2.165,7.456   c-1.29,1.578-3.159,2.622-5.937,2.849v-18.049H16.532v8.413c-9.347-3.642-13.274-9.763-13.274-15.441   c0.022-7.748,7.305-15.323,20.014-15.35c0.531-0.002,1.074,0.013,1.625,0.041c0.227,0.009,0.437,0.013,0.65,0.013   c5.543,0.023,9.043-3.764,10.903-8.756c1.573-4.141,2.228-9.226,2.413-14.313l9.086,35.726H25.032v6h56v-6h-20.7l-2.252-8.853   C61.732,85.465,66.582,84.21,71.592,84.215z M115.949,20.729c3.613,0,6.541,2.93,6.541,6.541c0,3.613-2.928,6.543-6.541,6.543   c-3.613,0-6.541-2.93-6.541-6.543C109.408,23.659,112.336,20.729,115.949,20.729z M76.505,4.085c3.612,0,6.542,2.93,6.542,6.541   c0,3.613-2.93,6.543-6.542,6.543c-3.612,0-6.542-2.93-6.542-6.543C69.963,7.015,72.893,4.085,76.505,4.085z M38.615,28.022   c3.613,0,6.542,2.93,6.542,6.541c0,3.613-2.929,6.543-6.542,6.543c-3.612,0-6.541-2.93-6.541-6.543   C32.074,30.952,35.003,28.022,38.615,28.022z"/><path d="M35.605,152.303c0-7.112-5.764-12.875-12.875-12.875c-7.111,0-12.875,5.763-12.875,12.875   c0,7.111,5.764,12.875,12.875,12.875C29.842,165.178,35.605,159.414,35.605,152.303z M22.73,161.928   c-5.316,0-9.625-4.309-9.625-9.625s4.309-9.625,9.625-9.625s9.625,4.309,9.625,9.625S28.047,161.928,22.73,161.928z"/><circle cx="22.73" cy="152.303" r="5.125"/><path d="M71.355,152.303c0,7.111,5.764,12.875,12.875,12.875c7.111,0,12.875-5.764,12.875-12.875   c0-7.112-5.764-12.875-12.875-12.875C77.119,139.428,71.355,145.19,71.355,152.303z M93.855,152.303   c0,5.316-4.309,9.625-9.625,9.625s-9.625-4.309-9.625-9.625s4.309-9.625,9.625-9.625S93.855,146.986,93.855,152.303z"/><circle cx="84.23" cy="152.303" r="5.125"/><polygon points="153.975,36.037 150.086,32.147 120.034,62.2 123.924,66.09 129.463,60.551 150.499,81.587 153.563,78.522    132.527,57.486 145.373,44.641 166.408,65.677 169.473,62.613 148.436,41.576  "/></g></svg>
