<?xml version="1.0" encoding="utf-8"?>
<!-- Generator: Adobe Illustrator 21.0.2, SVG Export Plug-In . SVG Version: 6.00 Build 0)  -->
<svg version="1.1" id="Layer_1" xmlns="http://www.w3.org/2000/svg" xmlns:xlink="http://www.w3.org/1999/xlink" x="0px" y="0px"
	 viewBox="0 0 22 22" style="enable-background:new 0 0 22 22;" xml:space="preserve">
<style type="text/css">
	.st0{fill-rule:evenodd;clip-rule:evenodd;fill:none;stroke:#FFFFFF;stroke-width:0.75;stroke-miterlimit:10;}
	.st1{fill-rule:evenodd;clip-rule:evenodd;fill:#B9DC0C;}
	.st2{fill:#FFFFFF;}
	.st3{fill:#2A2A2A;}
</style>
<circle class="st0" cx="11" cy="10.8" r="9.2"/>
<g>
	<circle class="st1" cx="11" cy="10.8" r="9.2"/>
	<path class="st2" d="M11,20.8c-5.5,0-10-4.5-10-10c0-5.5,4.5-10,10-10s10,4.5,10,10C21,16.3,16.5,20.8,11,20.8z M11,2.3
		c-4.7,0-8.5,3.8-8.5,8.5s3.8,8.5,8.5,8.5c4.7,0,8.5-3.8,8.5-8.5S15.7,2.3,11,2.3z"/>
</g>
<path class="st3" d="M11,16.2c-0.6,0-1-0.4-1-1V6.3c0-0.6,0.4-1,1-1s1,0.4,1,1v8.8C12,15.7,11.6,16.2,11,16.2z"/>
<path class="st3" d="M15.4,11.7H6.6c-0.6,0-1-0.4-1-1s0.4-1,1-1h8.8c0.6,0,1,0.4,1,1S16,11.7,15.4,11.7z"/>
</svg>
