<svg xmlns="http://www.w3.org/2000/svg" viewBox="0 0 466.4 63.1"><title>mo-green-white</title><path d="M1072.1,166.6a5.7,5.7,0,0,1,3.9,1.5c1.5,1.5,2,3.9,2,7.4v0.9h-14c0-3.5.9-6.3,2.4-7.8s3-2,5.6-2m10.8-3.2a14.4,14.4,0,0,0-11-4.5c-11.9,0-20.3,8.9-20.3,21.8s8.9,23.8,20.8,23.8c8.7,0,16-5.4,16-5.4l-3.3-6.9a17.7,17.7,0,0,1-10.6,3.9c-3,0-5.4-1.5-7.4-3s-3-5.4-3-9.3h24.2c0.2-.2,1.7-13.4-5.4-20.5m-257.6,3.2a5.7,5.7,0,0,1,3.9,1.5c1.5,1.5,2,3.9,2,7.4v0.9h-14c0-3.5.9-6.3,2.4-7.8s3.2-2,5.6-2m10.8-3.2a14.4,14.4,0,0,0-11-4.5c-11.9,0-20.3,8.9-20.3,21.8s8.9,23.8,20.8,23.8c8.7,0,15.8-5.4,15.8-5.4l-3.3-6.9a17.7,17.7,0,0,1-10.6,3.9c-3,0-5.4-1.5-7.4-3s-3-5.4-3-9.3h24.2c0.4-.2,1.9-13.4-5.2-20.5m78.9-11.9c11,0,14.5,11.5,14.5,20.8,0,5.4-1.1,22.3-14.5,22.3S900,177.7,900,172.3c0-9.5,4.1-20.8,14.9-20.8m0-9.5c-15.4,0-27.3,13-27.3,30.1,0,18.8,11.5,32.4,27.3,32.4S942,191.1,942,172.2c0.2-17.1-11.7-30.1-27.2-30.1m125.8,53c-6.9,0-11.5-5.8-11.5-14.3s6-13.4,11.5-13.4a18.1,18.1,0,0,1,7.4,1.9l-2.4-9.9a22.9,22.9,0,0,0-6-.9c-14.3,0-22.3,11.5-22.3,22.7,0,7.8,4.8,22.7,21.8,22.7a21.5,21.5,0,0,0,11.5-3.9l-2.4-7.4c0,0.4-3,2.6-7.6,2.6m-174.9,1.7c-3,0-4.5-3.5-4.5-9.3V167.5h9.9l-2-7.3h-7.8v-9.9H849.8v9.9h-6.3l1.5,7.3h4.8v22.7c0,9.3,3.9,14.5,12.5,14.5a22.2,22.2,0,0,0,11-3l-2-6.9c0-.2-2.4,1.9-5.4,1.9m-98.2-13c0-.9-11.9-42-11.9-42H740.8l-6,61.9h11.5l3.5-43.2h0.4l12.1,43.2h11l11.9-43.2h0.6l3.3,43.2h11.5l-5.4-61.9H779.8c-0.2,0-11.7,41.1-12.3,42m209.7-23.8H962.3v-3.5c0-4.8,3.5-6,4.5-6a6.2,6.2,0,0,1,4.8.9l-2-8.4a20.3,20.3,0,0,0-4.8-.6c-6.3,0-13.4,5-13.4,15.4v2H945l1.5,7.3h4.8v35.7h11V167.1h14.3v35.7h11.5V167.1h11.9v35.7h11.5v-43H988.4v-3.5c0-4.8,3.3-6,4.5-6a6.9,6.9,0,0,1,5,.9l-2-8.4a20.9,20.9,0,0,0-5-.6c-6.3,0-13.4,5-13.4,15.4v2h-0.2Z" transform="translate(-622.1 -141.7)" style="fill:#fff"/><path d="M641.2,162.9c-6.3,1.5-12.8-.6-19.2-2.6v-3.9a22.9,22.9,0,0,0,10,.2c13.4-3,23.8-21.2,43.5-12.5s39.8,0.7,42.4-.2v8.9c-8.4,1.9-21.6,3-33.7-2.2-19.3-8.9-29.9,9.5-43.2,12.3m16.9,11.7c13.2-3,23.8-21.2,43.3-12.5a49.4,49.4,0,0,0,16.7,3.7v-6.7c-7.6.7-16.9,0.4-25.5-3.5-19.7-8.6-30.1,9.5-43.3,12.6-9.1,2-17.7-2.8-27.2-5.4v5c13.4,0.6,24.2,9.3,35.9,6.7m13.8,11.7c13.2-3,23.8-21.2,43.5-12.6a15.7,15.7,0,0,0,2.6,1.1v-4.3a39.8,39.8,0,0,1-11.7-3.3c-19.5-8.6-30.1,9.7-43.3,12.6s-24.7-8-40.4-6.3h-0.6v9.3a27,27,0,0,1,9.5-3c15.6-1.9,27.5,9.3,40.4,6.5m5.2,4.1c-13,3-24.7-8.2-40.6-6.5-5,.6-9.9,3-14.5,6v13.8c3.7-4.3,11.7-11.5,23.3-12.5,15.8-1.3,27.5,9.5,40.6,6.5,10.2-2.2,19.3-14.1,32.2-14.9v-6c-18-6.1-28.5,10.8-40.9,13.6" transform="translate(-622.1 -141.7)" style="fill:#b9d532"/></svg>