<?xml version="1.0" encoding="utf-8"?>
<!-- Generator: Adobe Illustrator 15.0.0, SVG Export Plug-In . SVG Version: 6.00 Build 0)  -->
<!DOCTYPE svg PUBLIC "-//W3C//DTD SVG 1.1//EN" "http://www.w3.org/Graphics/SVG/1.1/DTD/svg11.dtd">
<svg version="1.1" xmlns="http://www.w3.org/2000/svg" xmlns:xlink="http://www.w3.org/1999/xlink" x="0px" y="0px" width="467px"
	 height="64px" viewBox="-6404.199 -6685.317 467 64" enable-background="new -6404.199 -6685.317 467 64" xml:space="preserve">
<g id="PROPS">
	<g id="logo-green-white">
		<g>
			<path fill="#FFFFFF" d="M-6757.449-6688.57c1.488,0,2.977,0.558,3.906,1.488c1.488,1.488,2.046,3.906,2.046,7.44v0.931h-13.951
				c0-3.535,0.93-6.325,2.418-7.813C-6761.355-6688.198-6760.053-6688.57-6757.449-6688.57 M-6746.66-6691.733
				c-2.976-2.977-6.324-4.465-10.976-4.465c-11.905,0-20.276,8.93-20.276,21.766c0,13.951,8.93,23.811,20.835,23.811
				c8.743,0,15.998-5.395,15.998-5.395l-3.349-6.883c0,0-4.465,3.906-10.604,3.906c-2.977,0-5.395-1.488-7.44-2.977
				c-2.047-2.418-2.977-5.395-2.977-9.301h24.183C-6741.079-6671.456-6739.59-6684.664-6746.66-6691.733 M-7004.304-6688.57
				c1.488,0,2.977,0.558,3.906,1.488c1.488,1.488,2.047,3.906,2.047,7.44v0.931h-13.952c0-3.535,0.93-6.325,2.419-7.813
				C-7008.21-6688.198-7006.722-6688.57-7004.304-6688.57 M-6993.515-6691.733c-2.976-2.977-6.324-4.465-10.975-4.465
				c-11.906,0-20.277,8.93-20.277,21.766c0,13.951,8.93,23.811,20.835,23.811c8.743,0,15.812-5.395,15.812-5.395l-3.348-6.883
				c0,0-4.465,3.906-10.604,3.906c-2.977,0-5.396-1.488-7.441-2.977c-2.046-2.418-2.977-5.395-2.977-9.301h24.184
				C-6987.934-6671.456-6986.446-6684.664-6993.515-6691.733 M-6914.64-6703.638c10.976,0,14.51,11.533,14.51,20.835
				c0,5.395-1.115,22.322-14.51,22.322c-13.952,0-14.882-16.928-14.882-22.322
				C-6929.522-6692.291-6925.429-6703.638-6914.64-6703.638 M-6914.64-6713.125c-15.44,0-27.346,13.021-27.346,30.136
				c0,18.788,11.534,32.368,27.346,32.368c15.812,0,27.16-13.394,27.16-32.368C-6887.294-6700.104-6899.2-6713.125-6914.64-6713.125
				 M-6788.887-6660.109c-6.883,0-11.533-5.767-11.533-14.323c0-9.302,5.952-13.394,11.533-13.394c3.906,0,7.441,1.86,7.441,1.86
				l-2.419-9.859c0,0-2.977-0.931-5.952-0.931c-14.324,0-22.323,11.533-22.323,22.695c0,7.812,4.837,22.694,21.765,22.694
				c6.325,0,11.533-3.906,11.533-3.906l-2.418-7.441C-6781.26-6662.34-6784.237-6660.109-6788.887-6660.109 M-6963.75-6658.434
				c-2.977,0-4.465-3.535-4.465-9.302v-19.904h9.859l-2.046-7.255h-7.813v-9.859h-11.533v9.859h-6.325l1.488,7.255h4.837v22.695
				c0,9.301,3.906,14.51,12.464,14.51c6.324,0,10.976-2.977,10.976-2.977l-2.047-6.883
				C-6958.356-6660.48-6960.774-6658.434-6963.75-6658.434 M-7061.972-6671.456c0-0.931-11.905-42.042-11.905-42.042h-14.882
				l-5.953,61.946h11.534l3.534-43.157h0.372l12.092,43.157h10.976l11.905-43.157h0.558l3.349,43.157h11.534l-5.396-61.946h-15.439
				C-7049.88-6713.498-7061.414-6672.386-7061.972-6671.456 M-6852.322-6695.267h-14.882v-3.534c0-4.837,3.534-5.953,4.465-5.953
				c2.977-0.559,4.836,0.93,4.836,0.93l-2.046-8.371c0,0-2.046-0.558-4.837-0.558c-6.324,0-13.394,5.022-13.394,15.44v2.046h-6.324
				l1.488,7.255h4.836v35.717h10.976v-35.717h14.324v35.717h11.533v-35.717h11.905v35.717h11.534v-42.972h-23.253v-3.534
				c0-4.837,3.348-5.953,4.464-5.953c2.977-0.559,5.022,0.93,5.022,0.93l-2.046-8.371c0,0-2.046-0.558-5.022-0.558
				c-6.325,0-13.394,5.022-13.394,15.44v2.046H-6852.322z"/>
			<g>
				<path fill="#B9DC0C" d="M-7188.283-6692.291c-6.325,1.488-12.836-0.559-19.161-2.604v-3.906
					c3.349,0.744,6.697,0.93,10.046,0.186c13.394-2.977,23.812-21.207,43.529-12.464c18.603,7.999,39.81,0.744,42.414-0.186v8.929
					c-8.371,1.861-21.579,2.977-33.67-2.231C-7164.471-6713.498-7175.075-6695.081-7188.283-6692.291 M-7171.355-6680.571
					c13.208-2.977,23.812-21.207,43.345-12.464c5.395,2.418,11.347,3.349,16.742,3.721v-6.697
					c-7.627,0.744-16.929,0.372-25.485-3.534c-19.719-8.558-30.137,9.487-43.345,12.649c-9.115,2.046-17.672-2.79-27.159-5.395
					v5.022C-7193.864-6686.709-7183.074-6677.967-7171.355-6680.571 M-7157.588-6668.852c13.207-2.976,23.811-21.206,43.529-12.649
					c0.931,0.559,1.675,0.744,2.604,1.116v-4.278c-3.906-0.559-7.812-1.488-11.72-3.349c-19.532-8.558-30.136,9.673-43.344,12.649
					c-13.021,2.977-24.741-7.999-40.367-6.325h-0.559v9.302c2.977-1.488,5.953-2.604,9.487-2.977
					C-7182.331-6677.223-7170.424-6666.061-7157.588-6668.852 M-7152.38-6664.759c-13.021,2.977-24.741-8.185-40.553-6.511
					c-5.023,0.559-9.859,2.977-14.511,5.953v13.766c3.721-4.278,11.72-11.533,23.254-12.464c15.812-1.302,27.531,9.487,40.553,6.511
					c10.231-2.231,19.347-14.138,32.183-14.882v-5.952C-7129.499-6684.478-7139.917-6667.549-7152.38-6664.759"/>
			</g>
		</g>
		<rect x="-7273.668" y="-6775.816" fill="none" width="595.28" height="186.025"/>
	</g>
	<g id="logo-white">
		<g>
			<path fill="#FFFFFF" d="M-6757.449-6513.09c1.488,0,2.977,0.559,3.906,1.488c1.488,1.488,2.046,3.906,2.046,7.441v0.93h-13.951
				c0-3.534,0.93-6.325,2.418-7.812C-6761.355-6512.718-6760.053-6513.09-6757.449-6513.09 M-6746.66-6516.252
				c-2.976-2.977-6.324-4.465-10.976-4.465c-11.905,0-20.276,8.929-20.276,21.765c0,13.952,8.93,23.812,20.835,23.812
				c8.743,0,15.998-5.396,15.998-5.396l-3.349-6.883c0,0-4.465,3.907-10.604,3.907c-2.977,0-5.395-1.488-7.44-2.977
				c-2.047-2.419-2.977-5.395-2.977-9.302h24.183C-6741.079-6495.976-6739.59-6509.184-6746.66-6516.252 M-7004.304-6513.09
				c1.488,0,2.977,0.559,3.906,1.488c1.488,1.488,2.047,3.906,2.047,7.441v0.93h-13.952c0-3.534,0.93-6.325,2.419-7.812
				C-7008.21-6512.718-7006.722-6513.09-7004.304-6513.09 M-6993.515-6516.252c-2.976-2.977-6.324-4.465-10.975-4.465
				c-11.906,0-20.277,8.929-20.277,21.765c0,13.952,8.93,23.812,20.835,23.812c8.743,0,15.812-5.396,15.812-5.396l-3.348-6.883
				c0,0-4.465,3.907-10.604,3.907c-2.977,0-5.396-1.488-7.441-2.977c-2.046-2.419-2.977-5.395-2.977-9.302h24.184
				C-6987.934-6495.976-6986.446-6509.184-6993.515-6516.252 M-6914.64-6528.158c10.976,0,14.51,11.533,14.51,20.835
				c0,5.395-1.115,22.323-14.51,22.323c-13.952,0-14.882-16.929-14.882-22.323
				C-6929.522-6516.811-6925.429-6528.158-6914.64-6528.158 M-6914.64-6537.646c-15.44,0-27.346,13.021-27.346,30.136
				c0,18.789,11.534,32.369,27.346,32.369c15.812,0,27.16-13.394,27.16-32.369C-6887.294-6524.624-6899.2-6537.646-6914.64-6537.646
				 M-6788.887-6484.628c-6.883,0-11.533-5.767-11.533-14.324c0-9.301,5.952-13.394,11.533-13.394c3.906,0,7.441,1.86,7.441,1.86
				l-2.419-9.859c0,0-2.977-0.931-5.952-0.931c-14.324,0-22.323,11.534-22.323,22.695c0,7.813,4.837,22.695,21.765,22.695
				c6.325,0,11.533-3.907,11.533-3.907l-2.418-7.44C-6781.26-6486.86-6784.237-6484.628-6788.887-6484.628 M-6963.75-6482.954
				c-2.977,0-4.465-3.534-4.465-9.301v-19.905h9.859l-2.046-7.255h-7.813v-9.859h-11.533v9.859h-6.325l1.488,7.255h4.837v22.695
				c0,9.302,3.906,14.51,12.464,14.51c6.324,0,10.976-2.976,10.976-2.976l-2.047-6.883
				C-6958.356-6485-6960.774-6482.954-6963.75-6482.954 M-7061.972-6495.976c0-0.931-11.905-42.042-11.905-42.042h-14.882
				l-5.953,61.946h11.534l3.534-43.157h0.372l12.092,43.157h10.976l11.905-43.157h0.558l3.349,43.157h11.534l-5.396-61.946h-15.439
				C-7049.88-6538.018-7061.414-6496.906-7061.972-6495.976 M-6852.322-6519.787h-14.882v-3.534c0-4.837,3.534-5.953,4.465-5.953
				c2.977-0.558,4.836,0.931,4.836,0.931l-2.046-8.371c0,0-2.046-0.559-4.837-0.559c-6.324,0-13.394,5.022-13.394,15.44v2.046
				h-6.324l1.488,7.255h4.836v35.717h10.976v-35.717h14.324v35.717h11.533v-35.717h11.905v35.717h11.534v-42.972h-23.253v-3.534
				c0-4.837,3.348-5.953,4.464-5.953c2.977-0.558,5.022,0.931,5.022,0.931l-2.046-8.371c0,0-2.046-0.559-5.022-0.559
				c-6.325,0-13.394,5.022-13.394,15.44v2.046H-6852.322z"/>
			<g>
				<path fill="#FFFFFF" d="M-7188.283-6516.811c-6.325,1.488-12.836-0.558-19.161-2.604v-3.906
					c3.349,0.744,6.697,0.93,10.046,0.186c13.394-2.976,23.812-21.206,43.529-12.463c18.603,7.999,39.81,0.744,42.414-0.187v8.93
					c-8.371,1.86-21.579,2.977-33.67-2.232C-7164.471-6538.018-7175.075-6519.601-7188.283-6516.811 M-7171.355-6505.091
					c13.208-2.977,23.812-21.207,43.345-12.464c5.395,2.419,11.347,3.349,16.742,3.721v-6.697
					c-7.627,0.744-16.929,0.372-25.485-3.534c-19.719-8.557-30.137,9.487-43.345,12.649c-9.115,2.047-17.672-2.79-27.159-5.395
					v5.022C-7193.864-6511.229-7183.074-6502.486-7171.355-6505.091 M-7157.588-6493.371c13.207-2.977,23.811-21.207,43.529-12.65
					c0.931,0.559,1.675,0.744,2.604,1.116v-4.278c-3.906-0.559-7.812-1.488-11.72-3.349c-19.532-8.557-30.136,9.673-43.344,12.649
					c-13.021,2.977-24.741-7.999-40.367-6.324h-0.559v9.301c2.977-1.488,5.953-2.604,9.487-2.977
					C-7182.331-6501.742-7170.424-6490.581-7157.588-6493.371 M-7152.38-6489.278c-13.021,2.976-24.741-8.186-40.553-6.512
					c-5.023,0.559-9.859,2.977-14.511,5.953v13.766c3.721-4.278,11.72-11.533,23.254-12.463c15.812-1.303,27.531,9.486,40.553,6.511
					c10.231-2.232,19.347-14.139,32.183-14.883v-5.952C-7129.499-6508.997-7139.917-6492.069-7152.38-6489.278"/>
			</g>
		</g>
		<rect x="-7273.668" y="-6600.336" fill="none" width="595.28" height="186.025"/>
	</g>
	
		<image overflow="visible" width="1039" height="145" xlink:href="../../../../../../../Users/Darkphoenix/Downloads/mo_logo_dark_background.png"  transform="matrix(0.24 0 0 0.24 -7067.2725 -6823.6113)">
	</image>
</g>
<g id="Background_colour" display="none">
	<rect x="-6469.464" y="-6843.952" display="inline" fill="#FF9F3F" width="627.339" height="427.03"/>
</g>
<g id="Met_office_banner_branding">
	<g>
		<path fill="#2A2A2A" d="M-5953.921-6659.921c1.488,0,2.977,0.559,3.906,1.488c1.488,1.488,2.045,3.907,2.045,7.441v0.93h-13.951
			c0-3.534,0.93-6.324,2.418-7.812C-5957.828-6659.549-5956.527-6659.921-5953.921-6659.921 M-5943.132-6663.083
			c-2.977-2.977-6.324-4.465-10.977-4.465c-11.904,0-20.275,8.93-20.275,21.765c0,13.952,8.93,23.812,20.834,23.812
			c8.744,0,15.998-5.395,15.998-5.395l-3.348-6.883c0,0-4.465,3.906-10.604,3.906c-2.977,0-5.395-1.488-7.441-2.977
			c-2.047-2.418-2.977-5.395-2.977-9.301h24.184C-5937.552-6642.807-5936.064-6656.014-5943.132-6663.083 M-6200.777-6659.921
			c1.488,0,2.977,0.559,3.906,1.488c1.488,1.488,2.047,3.907,2.047,7.441v0.93h-13.952c0-3.534,0.93-6.324,2.419-7.812
			C-6204.683-6659.549-6203.195-6659.921-6200.777-6659.921 M-6189.988-6663.083c-2.976-2.977-6.324-4.465-10.975-4.465
			c-11.906,0-20.277,8.93-20.277,21.765c0,13.952,8.93,23.812,20.835,23.812c8.743,0,15.812-5.395,15.812-5.395l-3.348-6.883
			c0,0-4.465,3.906-10.604,3.906c-2.977,0-5.396-1.488-7.441-2.977c-2.046-2.418-2.977-5.395-2.977-9.301h24.184
			C-6184.407-6642.807-6182.918-6656.014-6189.988-6663.083 M-6111.113-6674.99c10.975,0,14.51,11.534,14.51,20.835
			c0,5.395-1.115,22.323-14.51,22.323c-13.953,0-14.883-16.929-14.883-22.323C-6125.996-6663.642-6121.902-6674.99-6111.113-6674.99
			 M-6111.113-6684.476c-15.441,0-27.346,13.021-27.346,30.136c0,18.788,11.533,32.368,27.346,32.368s27.16-13.394,27.16-32.368
			C-6083.767-6671.455-6095.673-6684.476-6111.113-6684.476 M-5985.361-6631.459c-6.883,0-11.533-5.767-11.533-14.324
			c0-9.301,5.953-13.394,11.533-13.394c3.906,0,7.441,1.86,7.441,1.86l-2.418-9.859c0,0-2.977-0.93-5.953-0.93
			c-14.324,0-22.322,11.533-22.322,22.694c0,7.813,4.836,22.695,21.764,22.695c6.326,0,11.533-3.906,11.533-3.906l-2.418-7.441
			C-5977.734-6633.692-5980.71-6631.459-5985.361-6631.459 M-6160.224-6629.785c-2.976,0-4.464-3.535-4.464-9.302v-19.904h9.858
			l-2.045-7.255h-7.813v-9.859h-11.533v9.859h-6.325l1.488,7.255h4.837v22.694c0,9.302,3.906,14.511,12.464,14.511
			c6.324,0,10.975-2.977,10.975-2.977l-2.047-6.883C-6154.83-6631.832-6157.248-6629.785-6160.224-6629.785 M-6258.445-6642.807
			c0-0.93-11.905-42.041-11.905-42.041h-14.882l-5.953,61.946h11.534l3.534-43.158h0.372l12.092,43.158h10.976l11.905-43.158h0.558
			l3.349,43.158h11.534l-5.396-61.946h-15.439C-6246.353-6684.848-6257.886-6643.737-6258.445-6642.807 M-6048.794-6666.619h-14.883
			v-3.534c0-4.837,3.535-5.952,4.465-5.952c2.977-0.559,4.836,0.93,4.836,0.93l-2.045-8.371c0,0-2.047-0.559-4.838-0.559
			c-6.324,0-13.393,5.023-13.393,15.44v2.046h-6.324l1.488,7.256h4.836v35.717h10.975v-35.717h14.324v35.717h11.533v-35.717h11.906
			v35.717h11.533v-42.973h-23.252v-3.534c0-4.837,3.348-5.952,4.463-5.952c2.977-0.559,5.023,0.93,5.023,0.93l-2.047-8.371
			c0,0-2.045-0.559-5.021-0.559c-6.326,0-13.395,5.023-13.395,15.44v2.046H-6048.794z"/>
		<path fill="#2A2A2A" d="M-6384.755-6663.642c-6.325,1.489-12.836-0.558-19.161-2.604v-3.907c3.349,0.744,6.697,0.931,10.046,0.187
			c13.394-2.977,23.812-21.207,43.529-12.464c18.603,7.999,39.81,0.744,42.414-0.186v8.929c-8.371,1.86-21.579,2.977-33.67-2.232
			C-6360.944-6684.848-6371.547-6666.432-6384.755-6663.642 M-6367.828-6651.922c13.208-2.977,23.812-21.207,43.345-12.464
			c5.395,2.419,11.347,3.349,16.742,3.721v-6.696c-7.627,0.744-16.929,0.372-25.485-3.535c-19.719-8.557-30.137,9.487-43.345,12.65
			c-9.115,2.046-17.672-2.791-27.159-5.396v5.023C-6390.336-6658.061-6379.546-6649.318-6367.828-6651.922 M-6354.061-6640.203
			c13.207-2.977,23.811-21.207,43.529-12.649c0.931,0.558,1.675,0.744,2.604,1.116v-4.279c-3.906-0.558-7.812-1.488-11.72-3.349
			c-19.532-8.557-30.136,9.674-43.344,12.65c-13.021,2.977-24.741-7.999-40.367-6.325h-0.559v9.302
			c2.977-1.488,5.953-2.604,9.487-2.977C-6378.803-6648.574-6366.897-6637.413-6354.061-6640.203 M-6348.853-6636.11
			c-13.021,2.977-24.741-8.186-40.553-6.511c-5.023,0.558-9.859,2.976-14.511,5.952v13.767c3.721-4.279,11.72-11.534,23.254-12.464
			c15.812-1.302,27.531,9.487,40.553,6.511c10.231-2.232,19.347-14.138,32.183-14.882v-5.953
			C-6325.971-6655.829-6336.389-6638.901-6348.853-6636.11"/>
	</g>
	<g>
		<path fill="#FFFFFF" d="M-5953.921-6750.42c1.488,0,2.977,0.559,3.906,1.488c1.488,1.488,2.045,3.907,2.045,7.441v0.93h-13.951
			c0-3.534,0.93-6.324,2.418-7.812C-5957.827-6750.048-5956.526-6750.42-5953.921-6750.42 M-5943.132-6753.583
			c-2.977-2.977-6.324-4.465-10.977-4.465c-11.904,0-20.275,8.93-20.275,21.765c0,13.952,8.93,23.812,20.834,23.812
			c8.744,0,15.998-5.395,15.998-5.395l-3.348-6.883c0,0-4.465,3.906-10.604,3.906c-2.977,0-5.395-1.488-7.441-2.977
			c-2.047-2.418-2.977-5.395-2.977-9.301h24.184C-5937.552-6733.306-5936.063-6746.513-5943.132-6753.583 M-6200.777-6750.42
			c1.488,0,2.977,0.559,3.906,1.488c1.488,1.488,2.047,3.907,2.047,7.441v0.93h-13.952c0-3.534,0.93-6.324,2.419-7.812
			C-6204.683-6750.048-6203.195-6750.42-6200.777-6750.42 M-6189.988-6753.583c-2.976-2.977-6.324-4.465-10.975-4.465
			c-11.906,0-20.277,8.93-20.277,21.765c0,13.952,8.93,23.812,20.835,23.812c8.743,0,15.812-5.395,15.812-5.395l-3.348-6.883
			c0,0-4.465,3.906-10.604,3.906c-2.977,0-5.396-1.488-7.441-2.977c-2.046-2.418-2.977-5.395-2.977-9.301h24.184
			C-6184.407-6733.306-6182.918-6746.513-6189.988-6753.583 M-6111.113-6765.489c10.975,0,14.51,11.534,14.51,20.835
			c0,5.395-1.115,22.323-14.51,22.323c-13.953,0-14.883-16.929-14.883-22.323
			C-6125.996-6754.141-6121.902-6765.489-6111.113-6765.489 M-6111.113-6774.975c-15.441,0-27.346,13.021-27.346,30.136
			c0,18.788,11.533,32.368,27.346,32.368s27.16-13.394,27.16-32.368C-6083.767-6761.954-6095.673-6774.975-6111.113-6774.975
			 M-5985.36-6721.958c-6.883,0-11.533-5.767-11.533-14.324c0-9.301,5.953-13.394,11.533-13.394c3.906,0,7.441,1.86,7.441,1.86
			l-2.418-9.859c0,0-2.977-0.93-5.953-0.93c-14.324,0-22.322,11.533-22.322,22.694c0,7.813,4.836,22.695,21.764,22.695
			c6.326,0,11.533-3.906,11.533-3.906l-2.418-7.441C-5977.733-6724.191-5980.71-6721.958-5985.36-6721.958 M-6160.224-6720.284
			c-2.976,0-4.464-3.535-4.464-9.302v-19.904h9.858l-2.045-7.255h-7.813v-9.859h-11.533v9.859h-6.325l1.488,7.255h4.837v22.694
			c0,9.302,3.906,14.511,12.464,14.511c6.324,0,10.975-2.977,10.975-2.977l-2.047-6.883
			C-6154.83-6722.331-6157.248-6720.284-6160.224-6720.284 M-6258.445-6733.306c0-0.93-11.905-42.041-11.905-42.041h-14.882
			l-5.953,61.946h11.534l3.534-43.158h0.372l12.092,43.158h10.976l11.905-43.158h0.558l3.349,43.158h11.534l-5.396-61.946h-15.439
			C-6246.353-6775.347-6257.886-6734.236-6258.445-6733.306 M-6048.794-6757.118h-14.883v-3.534c0-4.837,3.535-5.952,4.465-5.952
			c2.977-0.559,4.836,0.93,4.836,0.93l-2.045-8.371c0,0-2.047-0.559-4.838-0.559c-6.324,0-13.393,5.023-13.393,15.44v2.046h-6.324
			l1.488,7.256h4.836v35.717h10.975v-35.717h14.324v35.717h11.533v-35.717h11.906v35.717h11.534v-42.973h-23.252v-3.534
			c0-4.837,3.348-5.952,4.463-5.952c2.977-0.559,5.023,0.93,5.023,0.93l-2.047-8.371c0,0-2.045-0.559-5.021-0.559
			c-6.326,0-13.395,5.023-13.395,15.44v2.046H-6048.794z"/>
		<path fill="#B9DC0C" d="M-6384.755-6754.141c-6.325,1.489-12.836-0.558-19.161-2.604v-3.907c3.349,0.744,6.697,0.931,10.046,0.187
			c13.394-2.977,23.812-21.207,43.529-12.464c18.603,7.999,39.81,0.744,42.414-0.186v8.929c-8.371,1.86-21.579,2.977-33.67-2.232
			C-6360.944-6775.347-6371.547-6756.931-6384.755-6754.141 M-6367.828-6742.421c13.208-2.977,23.812-21.207,43.345-12.464
			c5.395,2.419,11.347,3.349,16.742,3.721v-6.696c-7.627,0.744-16.929,0.372-25.485-3.535c-19.719-8.557-30.137,9.487-43.345,12.65
			c-9.115,2.046-17.672-2.791-27.159-5.396v5.023C-6390.336-6748.56-6379.546-6739.817-6367.828-6742.421 M-6354.061-6730.702
			c13.207-2.977,23.811-21.207,43.529-12.649c0.931,0.558,1.675,0.744,2.604,1.116v-4.279c-3.906-0.558-7.812-1.488-11.72-3.349
			c-19.532-8.557-30.136,9.674-43.344,12.65c-13.021,2.977-24.741-7.999-40.367-6.325h-0.559v9.302
			c2.977-1.488,5.953-2.604,9.487-2.977C-6378.803-6739.073-6366.897-6727.912-6354.061-6730.702 M-6348.853-6726.609
			c-13.021,2.977-24.741-8.186-40.553-6.511c-5.023,0.558-9.859,2.976-14.511,5.952v13.767c3.721-4.279,11.72-11.534,23.254-12.464
			c15.812-1.302,27.531,9.487,40.553,6.511c10.231-2.232,19.347-14.138,32.183-14.882v-5.953
			C-6325.971-6746.328-6336.389-6729.4-6348.853-6726.609"/>
	</g>
	<g>
		<path fill="#FFFFFF" d="M-5953.921-6563.892c1.488,0,2.977,0.559,3.906,1.488c1.488,1.488,2.045,3.907,2.045,7.441v0.93h-13.951
			c0-3.534,0.93-6.324,2.418-7.812C-5957.828-6563.52-5956.527-6563.892-5953.921-6563.892 M-5943.132-6567.054
			c-2.977-2.977-6.324-4.465-10.977-4.465c-11.904,0-20.275,8.93-20.275,21.765c0,13.952,8.93,23.812,20.834,23.812
			c8.744,0,15.998-5.395,15.998-5.395l-3.348-6.883c0,0-4.465,3.906-10.604,3.906c-2.977,0-5.395-1.488-7.441-2.977
			c-2.047-2.418-2.977-5.395-2.977-9.301h24.184C-5937.552-6546.777-5936.064-6559.984-5943.132-6567.054 M-6200.777-6563.892
			c1.488,0,2.977,0.559,3.906,1.488c1.488,1.488,2.047,3.907,2.047,7.441v0.93h-13.952c0-3.534,0.93-6.324,2.419-7.812
			C-6204.683-6563.52-6203.195-6563.892-6200.777-6563.892 M-6189.988-6567.054c-2.976-2.977-6.324-4.465-10.975-4.465
			c-11.906,0-20.277,8.93-20.277,21.765c0,13.952,8.93,23.812,20.835,23.812c8.743,0,15.812-5.395,15.812-5.395l-3.348-6.883
			c0,0-4.465,3.906-10.604,3.906c-2.977,0-5.396-1.488-7.441-2.977c-2.046-2.418-2.977-5.395-2.977-9.301h24.184
			C-6184.407-6546.777-6182.918-6559.984-6189.988-6567.054 M-6111.113-6578.96c10.975,0,14.51,11.534,14.51,20.835
			c0,5.395-1.115,22.323-14.51,22.323c-13.953,0-14.883-16.929-14.883-22.323C-6125.996-6567.612-6121.902-6578.96-6111.113-6578.96
			 M-6111.113-6588.446c-15.441,0-27.346,13.021-27.346,30.136c0,18.788,11.533,32.368,27.346,32.368s27.16-13.394,27.16-32.368
			C-6083.767-6575.425-6095.673-6588.446-6111.113-6588.446 M-5985.361-6535.43c-6.883,0-11.533-5.767-11.533-14.324
			c0-9.301,5.953-13.394,11.533-13.394c3.906,0,7.441,1.86,7.441,1.86l-2.418-9.859c0,0-2.977-0.93-5.953-0.93
			c-14.324,0-22.322,11.533-22.322,22.694c0,7.813,4.836,22.695,21.764,22.695c6.326,0,11.533-3.906,11.533-3.906l-2.418-7.441
			C-5977.734-6537.662-5980.71-6535.43-5985.361-6535.43 M-6160.224-6533.755c-2.976,0-4.464-3.535-4.464-9.302v-19.904h9.858
			l-2.045-7.255h-7.813v-9.859h-11.533v9.859h-6.325l1.488,7.255h4.837v22.694c0,9.302,3.906,14.511,12.464,14.511
			c6.324,0,10.975-2.977,10.975-2.977l-2.047-6.883C-6154.83-6535.802-6157.248-6533.755-6160.224-6533.755 M-6258.445-6546.777
			c0-0.93-11.905-42.041-11.905-42.041h-14.882l-5.953,61.946h11.534l3.534-43.158h0.372l12.092,43.158h10.976l11.905-43.158h0.558
			l3.349,43.158h11.534l-5.396-61.946h-15.439C-6246.353-6588.818-6257.886-6547.707-6258.445-6546.777 M-6048.794-6570.589h-14.883
			v-3.534c0-4.837,3.535-5.952,4.465-5.952c2.977-0.559,4.836,0.93,4.836,0.93l-2.045-8.371c0,0-2.047-0.559-4.838-0.559
			c-6.324,0-13.393,5.023-13.393,15.44v2.046h-6.324l1.488,7.256h4.836v35.717h10.975v-35.717h14.324v35.717h11.533v-35.717h11.906
			v35.717h11.533v-42.973h-23.252v-3.534c0-4.837,3.348-5.952,4.463-5.952c2.977-0.559,5.023,0.93,5.023,0.93l-2.047-8.371
			c0,0-2.045-0.559-5.021-0.559c-6.326,0-13.395,5.023-13.395,15.44v2.046H-6048.794z"/>
		<path fill="#FFFFFF" d="M-6384.755-6567.612c-6.325,1.489-12.836-0.558-19.161-2.604v-3.907c3.349,0.744,6.697,0.931,10.046,0.187
			c13.394-2.977,23.812-21.207,43.529-12.464c18.603,7.999,39.81,0.744,42.414-0.186v8.929c-8.371,1.86-21.579,2.977-33.67-2.232
			C-6360.944-6588.818-6371.547-6570.402-6384.755-6567.612 M-6367.828-6555.893c13.208-2.977,23.812-21.207,43.345-12.464
			c5.395,2.419,11.347,3.349,16.742,3.721v-6.696c-7.627,0.744-16.929,0.372-25.485-3.535c-19.719-8.557-30.137,9.487-43.345,12.65
			c-9.115,2.046-17.672-2.791-27.159-5.396v5.023C-6390.336-6562.031-6379.546-6553.288-6367.828-6555.893 M-6354.061-6544.173
			c13.207-2.977,23.811-21.207,43.529-12.649c0.931,0.558,1.675,0.744,2.604,1.116v-4.279c-3.906-0.558-7.812-1.488-11.72-3.349
			c-19.532-8.557-30.136,9.674-43.344,12.65c-13.021,2.977-24.741-7.999-40.367-6.325h-0.559v9.302
			c2.977-1.488,5.953-2.604,9.487-2.977C-6378.803-6552.544-6366.897-6541.383-6354.061-6544.173 M-6348.853-6540.08
			c-13.021,2.977-24.741-8.186-40.553-6.511c-5.023,0.558-9.859,2.976-14.511,5.952v13.767c3.721-4.279,11.72-11.534,23.254-12.464
			c15.812-1.302,27.531,9.487,40.553,6.511c10.231-2.232,19.347-14.138,32.183-14.882v-5.953
			C-6325.971-6559.799-6336.389-6542.871-6348.853-6540.08"/>
	</g>
</g>
</svg>
