<?xml version="1.0" encoding="UTF-8" standalone="no"?>
<svg
   xmlns:dc="http://purl.org/dc/elements/1.1/"
   xmlns:cc="http://creativecommons.org/ns#"
   xmlns:rdf="http://www.w3.org/1999/02/22-rdf-syntax-ns#"
   xmlns:svg="http://www.w3.org/2000/svg"
   xmlns="http://www.w3.org/2000/svg"
   xmlns:sodipodi="http://sodipodi.sourceforge.net/DTD/sodipodi-0.dtd"
   xmlns:inkscape="http://www.inkscape.org/namespaces/inkscape"
   width="50"
   height="33"
   version="1.1"
   viewBox="0 0 50 33"
   xml:space="preserve"
   id="svg20"
   sodipodi:docname="noun_measure_95971.svg"
   inkscape:version="0.92.2 (5c3e80d, 2017-08-06)"><metadata
     id="metadata26"><rdf:RDF><cc:Work
         rdf:about=""><dc:format>image/svg+xml</dc:format><dc:type
           rdf:resource="http://purl.org/dc/dcmitype/StillImage" /><dc:title></dc:title></cc:Work></rdf:RDF></metadata><defs
     id="defs24" /><sodipodi:namedview
     pagecolor="#ffffff"
     bordercolor="#666666"
     borderopacity="1"
     objecttolerance="10"
     gridtolerance="10"
     guidetolerance="10"
     inkscape:pageopacity="0"
     inkscape:pageshadow="2"
     inkscape:window-width="1634"
     inkscape:window-height="924"
     id="namedview22"
     showgrid="false"
     fit-margin-top="0"
     fit-margin-left="0"
     fit-margin-right="0"
     fit-margin-bottom="0"
     inkscape:zoom="22.878788"
     inkscape:cx="25"
     inkscape:cy="16.5"
     inkscape:window-x="0"
     inkscape:window-y="0"
     inkscape:window-maximized="0"
     inkscape:current-layer="svg20" /><path
     d="M 25.043706,0 C 24.316651,0 23.727531,0.56810769 23.727531,1.2692308 V 31.730769 c 0,0.701123 0.58912,1.269231 1.316175,1.269231 0.727055,0 1.316175,-0.568108 1.316175,-1.269231 V 1.2692308 C 26.359881,0.56810769 25.770761,0 25.043706,0 Z"
     id="path2"
     inkscape:connector-curvature="0"
     style="stroke-width:0.51699585" /><path
     d="m 2.4525985,20.307692 c -0.7270549,0 -1.3161747,0.568108 -1.3161747,1.269231 V 31.730769 C 1.1364238,32.431892 1.7255436,33 2.4525985,33 3.1796533,33 3.7687731,32.431892 3.7687731,31.730769 V 21.576923 c 0,-0.701123 -0.5891198,-1.269231 -1.3161746,-1.269231 z"
     id="path4"
     inkscape:connector-curvature="0"
     style="stroke-width:0.51699585" /><path
     d="m 8.1003753,20.307692 c -0.7270549,0 -1.3161746,0.568108 -1.3161746,1.269231 V 31.730769 C 6.7842007,32.431892 7.3733204,33 8.1003753,33 8.8274302,33 9.41655,32.431892 9.41655,31.730769 V 21.576923 c 0,-0.701123 -0.5891198,-1.269231 -1.3161747,-1.269231 z"
     id="path6"
     inkscape:connector-curvature="0"
     style="stroke-width:0.51699585" /><path
     d="m 13.748152,20.307692 c -0.727055,0 -1.316175,0.568108 -1.316175,1.269231 v 10.153846 c 0,0.701123 0.58912,1.269231 1.316175,1.269231 0.727054,0 1.316174,-0.568108 1.316174,-1.269231 V 21.576923 c 0,-0.701123 -0.58912,-1.269231 -1.316174,-1.269231 z"
     id="path8"
     inkscape:connector-curvature="0"
     style="stroke-width:0.51699585" /><path
     d="m 19.395929,20.307692 c -0.727055,0 -1.316175,0.568108 -1.316175,1.269231 v 10.153846 c 0,0.701123 0.58912,1.269231 1.316175,1.269231 0.727054,0 1.316174,-0.568108 1.316174,-1.269231 V 21.576923 c 0,-0.701123 -0.58912,-1.269231 -1.316174,-1.269231 z"
     id="path10"
     inkscape:connector-curvature="0"
     style="stroke-width:0.51699585" /><path
     d="m 30.691485,20.307692 c -0.727054,0 -1.316174,0.568108 -1.316174,1.269231 v 10.153846 c 0,0.701123 0.58912,1.269231 1.316174,1.269231 0.727055,0 1.316175,-0.568108 1.316175,-1.269231 V 21.576923 c 0,-0.701123 -0.58912,-1.269231 -1.316175,-1.269231 z"
     id="path12"
     inkscape:connector-curvature="0"
     style="stroke-width:0.51699585" /><path
     d="m 36.339262,20.307692 c -0.727055,0 -1.316175,0.568108 -1.316175,1.269231 v 10.153846 c 0,0.701123 0.58912,1.269231 1.316175,1.269231 0.727055,0 1.316175,-0.568108 1.316175,-1.269231 V 21.576923 c 0,-0.701123 -0.58912,-1.269231 -1.316175,-1.269231 z"
     id="path14"
     inkscape:connector-curvature="0"
     style="stroke-width:0.51699585" /><path
     d="m 41.987039,20.307692 c -0.727055,0 -1.316175,0.568108 -1.316175,1.269231 v 10.153846 c 0,0.701123 0.58912,1.269231 1.316175,1.269231 0.727055,0 1.316175,-0.568108 1.316175,-1.269231 V 21.576923 c 0,-0.701123 -0.58912,-1.269231 -1.316175,-1.269231 z"
     id="path16"
     inkscape:connector-curvature="0"
     style="stroke-width:0.51699585" /><path
     d="m 47.634816,20.307692 c -0.727055,0 -1.316174,0.568108 -1.316174,1.269231 v 10.153846 c 0,0.701123 0.589119,1.269231 1.316174,1.269231 0.727055,0 1.316175,-0.568108 1.316175,-1.269231 V 21.576923 c 0,-0.701123 -0.58912,-1.269231 -1.316175,-1.269231 z"
     id="path18"
     inkscape:connector-curvature="0"
     style="stroke-width:0.51699585" /></svg>