<svg xmlns="http://www.w3.org/2000/svg" viewBox="0 0 25 12"><path d="M6 0c2.9730632 0 5.4410745 2.1623839 5.9170737 5.0001915L25 5v2h-2v4h-2V7h-2v4h-2V7l-5.0830939.0008069c-.4631768 2.758502-2.8086292 4.8785677-5.6703806 4.9942206L6 12c-3.3137085 0-6-2.6862915-6-6C0 2.7616031 2.5655749.1224282 5.7750617.0041385L6 0zm2.353519 2.7655768l-.1491102-.1038546-.2469738-.1508688-.0879658-.0473679c-.2042162-.1086856-.4193163-.1999444-.6431067-.2719755l-.2471014-.0702978c-.1605788-.0408984-.3254123-.0716642-.4934571-.0920098l-.1174742-.0123679C6.247419 2.0056763 6.1243724 2 6 2 3.790861 2 2 3.790861 2 6s1.790861 4 4 4c.2534811 0 .5014552-.023578.7418489-.0686605l.2806105-.0637059-.0227029.0064116c.2293402-.0590126.4507214-.1378531.6622073-.2345853l.2474378-.1237413.1564282-.0903119.1351302-.084919.204941-.144831.1109022-.0865422.1817302-.1561996.0714806-.0672497c.1135529-.1085678.2205982-.2237923.32061-.3450935l.1679921-.2202409c.1358167-.1886537.2549858-.3904527.3560354-.6028858l.0496189-.1084903.0987422-.246987.0676313-.2067148.0588153-.2174598.0550578-.2681678L10.056 6l-.1324916-.7824424c-.0250898-.1265195-.0561465-.2508915-.0928645-.3728105l-.0650546-.1971729-.061778-.1609194-.0836682-.1902157c-.0676398-.1451109-.1440744-.285125-.2283847-.4195837l-.1586153-.2324891c-.2453538-.3373166-.5429272-.6338035-.8796241-.8787895z" fill="#FFF" fill-rule="nonzero"/></svg>