<?xml version="1.0" encoding="UTF-8"?>
<svg width="40.005" height="40" version="1.1" viewBox="0 0 40.005 40" xml:space="preserve" xmlns="http://www.w3.org/2000/svg"><path d="m20 0c-0.6905 0-1.25 0.68862-1.25 1.5385v36.923c0 0.84985 0.5595 1.5385 1.25 1.5385 0.6905 0 1.25-0.68862 1.25-1.5385v-36.923c0-0.84985-0.5595-1.5385-1.25-1.5385z" stroke-width=".5547"/><g stroke-width=".5547"><path d="m3.75 24.615c-0.6905 0-1.25 0.68862-1.25 1.5385v12.308c0 0.84985 0.5595 1.5385 1.25 1.5385s1.25-0.68862 1.25-1.5385v-12.308c0-0.84985-0.5595-1.5385-1.25-1.5385z"/><path d="m11.875 24.615c-0.6905 0-1.25 0.68862-1.25 1.5385v12.308c0 0.84985 0.5595 1.5385 1.25 1.5385 0.6905 0 1.25-0.68862 1.25-1.5385v-12.308c0-0.84985-0.5595-1.5385-1.25-1.5385z"/><path d="m28.125 24.615c-0.6905 0-1.25 0.68862-1.25 1.5385v12.308c0 0.84985 0.5595 1.5385 1.25 1.5385 0.6905 0 1.25-0.68862 1.25-1.5385v-12.308c0-0.84985-0.5595-1.5385-1.25-1.5385z"/><path d="m36.25 24.615c-0.6905 0-1.25 0.68862-1.25 1.5385v12.308c0 0.84985 0.5595 1.5385 1.25 1.5385 0.6905 0 1.25-0.68862 1.25-1.5385v-12.308c0-0.84985-0.5595-1.5385-1.25-1.5385z"/></g></svg>
